<svg width="86" height="86" viewBox="0 0 86 86" fill="none" xmlns="http://www.w3.org/2000/svg">
<path d="M25.0833 39.4166V21.5C25.0833 10.75 32.25 3.58331 43 3.58331C53.75 3.58331 60.9167 10.75 60.9167 21.5V39.4166M43 53.75V68.0833M43 82.4166C49.6525 82.4166 56.0325 79.7739 60.7366 75.0699C65.4406 70.3659 68.0833 63.9858 68.0833 57.3333C68.0833 50.6808 65.4406 44.3008 60.7366 39.5967C56.0325 34.8927 49.6525 32.25 43 32.25C36.3475 32.25 29.9674 34.8927 25.2634 39.5967C20.5594 44.3008 17.9167 50.6808 17.9167 57.3333C17.9167 63.9858 20.5594 70.3659 25.2634 75.0699C29.9674 79.7739 36.3475 82.4166 43 82.4166ZM43 57.3333C43.9504 57.3333 44.8618 56.9558 45.5338 56.2838C46.2058 55.6118 46.5833 54.7003 46.5833 53.75C46.5833 52.7996 46.2058 51.8882 45.5338 51.2162C44.8618 50.5442 43.9504 50.1666 43 50.1666C42.0496 50.1666 41.1382 50.5442 40.4662 51.2162C39.7942 51.8882 39.4167 52.7996 39.4167 53.75C39.4167 54.7003 39.7942 55.6118 40.4662 56.2838C41.1382 56.9558 42.0496 57.3333 43 57.3333Z" stroke="black" stroke-width="2"/>
</svg>
