<svg width="86" height="86" viewBox="0 0 86 86" fill="none" xmlns="http://www.w3.org/2000/svg">
<g clip-path="url(#clip0_19_456)">
<path d="M22.9333 34.4H28.6667V28.6667H22.9333V34.4ZM57.3333 34.4H63.0667V28.6667H57.3333V34.4ZM57.9067 49.88C56.171 52.1942 53.9204 54.0725 51.3331 55.3662C48.7457 56.6598 45.8927 57.3333 43 57.3333C40.1073 57.3333 37.2543 56.6598 34.6669 55.3662C32.0796 54.0725 29.829 52.1942 28.0933 49.88L23.5067 53.32C33.2533 66.3175 52.7467 66.3175 62.4933 53.32L57.9067 49.88ZM5.73333 28.6667V14.3333H0V28.6667H5.73333ZM14.3333 5.73333H28.6667V0H14.3333V5.73333ZM5.73333 14.3333C5.73333 12.0525 6.6394 9.86503 8.25222 8.25222C9.86503 6.6394 12.0525 5.73333 14.3333 5.73333V0C10.5319 0 6.88616 1.51011 4.19814 4.19814C1.51011 6.88616 0 10.5319 0 14.3333H5.73333ZM0 57.3333V71.6667H5.73333V57.3333H0ZM14.3333 86H28.6667V80.2667H14.3333V86ZM0 71.6667C0 75.4681 1.51011 79.1138 4.19814 81.8019C6.88616 84.4899 10.5319 86 14.3333 86V80.2667C12.0525 80.2667 9.86503 79.3606 8.25222 77.7478C6.6394 76.135 5.73333 73.9475 5.73333 71.6667H0ZM57.3333 5.73333H71.6667V0H57.3333V5.73333ZM80.2667 14.3333V28.6667H86V14.3333H80.2667ZM71.6667 5.73333C73.9475 5.73333 76.135 6.6394 77.7478 8.25222C79.3606 9.86503 80.2667 12.0525 80.2667 14.3333H86C86 10.5319 84.4899 6.88616 81.8019 4.19814C79.1138 1.51011 75.4681 0 71.6667 0V5.73333ZM57.3333 86H71.6667V80.2667H57.3333V86ZM86 71.6667V57.3333H80.2667V71.6667H86ZM71.6667 86C75.4681 86 79.1138 84.4899 81.8019 81.8019C84.4899 79.1138 86 75.4681 86 71.6667H80.2667C80.2667 73.9475 79.3606 76.135 77.7478 77.7478C76.135 79.3606 73.9475 80.2667 71.6667 80.2667V86Z" fill="black"/>
</g>
<defs>
<clipPath id="clip0_19_456">
<rect width="86" height="86" fill="white"/>
</clipPath>
</defs>
</svg>
