<svg width="54" height="54" viewBox="0 0 54 54" fill="none" xmlns="http://www.w3.org/2000/svg">
<g clip-path="url(#clip0_37_2)">
<path d="M53.38 0.510986H0.412964V53.478H53.38V0.510986Z" fill="#188DFF"/>
<path d="M20.564 30.025H17.007V23.187L13.807 27.141H13.523L10.305 23.187V30.025H6.854V18.243H10.07L13.701 22.651L17.341 18.243H20.564V30.025Z" fill="white"/>
<path d="M43.297 24.192C43.3433 23.4101 43.1523 22.6324 42.749 21.961C42.4384 21.4695 41.9765 21.0922 41.433 20.886C40.9303 20.7081 40.4012 20.6168 39.868 20.616H38.353V27.565H39.868C40.719 27.5867 41.5577 27.3571 42.279 26.905C42.957 26.47 43.297 25.56 43.297 24.191M46.934 24.338C46.9812 25.3493 46.7527 26.3544 46.273 27.246C45.8701 27.9311 45.3407 28.5334 44.713 29.021C43.6754 29.7456 42.4232 30.098 41.16 30.021H34.798V18.243H39.698C40.3305 18.2354 40.9628 18.2731 41.59 18.3559C42.0727 18.4226 42.5483 18.5331 43.011 18.6859C43.3832 18.801 43.742 18.9559 44.081 19.148C44.3587 19.3153 44.6237 19.5028 44.874 19.709C45.2846 20.0424 45.6426 20.4358 45.936 20.8759C46.2567 21.351 46.5019 21.8729 46.663 22.4229C46.8497 23.0442 46.9411 23.6893 46.934 24.338Z" fill="white"/>
<path d="M32.084 18.231H23.34V20.607H32.084V18.231Z" fill="white"/>
<path d="M32.084 22.741H23.34V25.121H32.084V22.741Z" fill="white"/>
<path d="M32.084 27.657H23.34V30.037H32.084V27.657Z" fill="white"/>
<path d="M16.55 33.6479V34.581C15.3447 33.9137 13.9944 33.5518 12.617 33.5269C11.9792 33.5119 11.3452 33.6293 10.755 33.8716C10.1648 34.114 9.63122 34.476 9.188 34.9349C8.73327 35.3961 8.37658 35.9446 8.13942 36.5474C7.90225 37.1501 7.78952 37.7945 7.808 38.4419C7.78621 39.0902 7.89811 39.7361 8.13673 40.3393C8.37535 40.9424 8.73558 41.49 9.195 41.9479C9.66393 42.4048 10.2204 42.762 10.8311 42.9981C11.4417 43.2343 12.0937 43.3444 12.748 43.322C14.131 43.2737 15.4802 42.8819 16.674 42.1819V43.0759C15.4767 43.7456 14.1317 44.1068 12.76 44.1269C11.9866 44.15 11.2164 44.0178 10.495 43.738C9.77354 43.4582 9.11558 43.0365 8.56 42.4979C8.02379 41.9645 7.59888 41.3299 7.30995 40.6309C7.02101 39.9318 6.87381 39.1824 6.87688 38.426C6.87995 37.6697 7.03323 36.9215 7.32783 36.2248C7.62243 35.5282 8.05248 34.897 8.593 34.3679C9.13001 33.8364 9.7676 33.4172 10.4685 33.135C11.1694 32.8527 11.9195 32.7129 12.675 32.7239C14.0177 32.7482 15.3392 33.0639 16.548 33.6489" fill="white"/>
<path d="M25.586 39.424L23.198 34.216L20.817 39.424H25.586ZM23.461 32.816L28.561 43.969H27.661L25.905 40.14H20.485L18.734 43.969H17.834L22.965 32.816H23.461Z" fill="white"/>
<path d="M31.401 33.589V37.9409H33.243C34.0008 37.9916 34.7543 37.7924 35.388 37.374C35.6206 37.1755 35.8073 36.9288 35.9349 36.651C36.0626 36.3732 36.1282 36.0709 36.1273 35.7651C36.1263 35.4594 36.0588 35.1575 35.9294 34.8805C35.8 34.6035 35.6119 34.3579 35.378 34.161C34.7378 33.7398 33.9777 33.5389 33.213 33.589H31.401ZM30.536 32.881H33.384C34.355 32.8152 35.3186 33.088 36.111 33.653C36.4198 33.9046 36.6658 34.2246 36.8296 34.5877C36.9935 34.9507 37.0706 35.3469 37.055 35.7449C37.0587 36.3659 36.8537 36.9701 36.4729 37.4607C36.0921 37.9512 35.5575 38.2996 34.955 38.45C35.5721 38.8919 36.0789 39.4702 36.436 40.14L38.949 43.969H37.957L35.993 40.934C35.5994 40.2219 35.0928 39.5786 34.493 39.029C34.0144 38.751 33.4644 38.6205 32.912 38.654H31.412V43.969H30.547L30.536 32.881Z" fill="white"/>
<path d="M46.653 32.881V33.589H41.464V38.041H46.498V38.749H41.464V43.261H46.774V43.972H40.599V32.881H46.653Z" fill="white"/>
<path d="M20.564 30.025H17.007V23.187L13.807 27.141H13.523L10.305 23.187V30.025H6.854V18.243H10.07L13.701 22.651L17.341 18.243H20.564V30.025Z" fill="white"/>
<path d="M43.297 24.192C43.3433 23.4101 43.1523 22.6324 42.749 21.961C42.4384 21.4695 41.9765 21.0922 41.433 20.886C40.9303 20.7081 40.4012 20.6168 39.868 20.616H38.353V27.565H39.868C40.719 27.5867 41.5577 27.3571 42.279 26.905C42.957 26.47 43.297 25.56 43.297 24.191M46.934 24.338C46.9812 25.3493 46.7527 26.3544 46.273 27.246C45.8701 27.9311 45.3407 28.5334 44.713 29.021C43.6754 29.7456 42.4232 30.098 41.16 30.021H34.798V18.243H39.698C40.3305 18.2354 40.9628 18.2731 41.59 18.3559C42.0727 18.4226 42.5483 18.5331 43.011 18.6859C43.3832 18.801 43.742 18.9559 44.081 19.148C44.3587 19.3153 44.6237 19.5028 44.874 19.709C45.2846 20.0424 45.6426 20.4358 45.936 20.8759C46.2567 21.351 46.5019 21.8729 46.663 22.4229C46.8497 23.0442 46.9411 23.6893 46.934 24.338Z" fill="white"/>
<path d="M32.084 18.231H23.34V20.607H32.084V18.231Z" fill="white"/>
<path d="M32.084 22.741H23.34V25.121H32.084V22.741Z" fill="white"/>
<path d="M32.084 27.657H23.34V30.037H32.084V27.657Z" fill="white"/>
<path d="M16.55 33.6479V34.581C15.3447 33.9137 13.9944 33.5518 12.617 33.5269C11.9792 33.5119 11.3452 33.6293 10.755 33.8716C10.1648 34.114 9.63122 34.476 9.188 34.9349C8.73327 35.3961 8.37658 35.9446 8.13942 36.5474C7.90225 37.1501 7.78952 37.7945 7.808 38.4419C7.78621 39.0902 7.89811 39.7361 8.13673 40.3393C8.37535 40.9424 8.73558 41.49 9.195 41.9479C9.66393 42.4048 10.2204 42.762 10.8311 42.9981C11.4417 43.2343 12.0937 43.3444 12.748 43.322C14.131 43.2737 15.4802 42.8819 16.674 42.1819V43.0759C15.4767 43.7456 14.1317 44.1068 12.76 44.1269C11.9866 44.15 11.2164 44.0178 10.495 43.738C9.77354 43.4582 9.11558 43.0365 8.56 42.4979C8.02379 41.9645 7.59888 41.3299 7.30995 40.6309C7.02101 39.9318 6.87381 39.1824 6.87688 38.426C6.87995 37.6697 7.03323 36.9215 7.32783 36.2248C7.62243 35.5282 8.05248 34.897 8.593 34.3679C9.13001 33.8364 9.7676 33.4172 10.4685 33.135C11.1694 32.8527 11.9195 32.7129 12.675 32.7239C14.0177 32.7482 15.3392 33.0639 16.548 33.6489" fill="white"/>
<path d="M25.586 39.424L23.198 34.216L20.817 39.424H25.586ZM23.461 32.816L28.561 43.969H27.661L25.905 40.14H20.485L18.734 43.969H17.834L22.965 32.816H23.461Z" fill="white"/>
<path d="M31.401 33.589V37.9409H33.243C34.0008 37.9916 34.7543 37.7924 35.388 37.374C35.6206 37.1755 35.8073 36.9288 35.9349 36.651C36.0626 36.3732 36.1282 36.0709 36.1273 35.7651C36.1263 35.4594 36.0588 35.1575 35.9294 34.8805C35.8 34.6035 35.6119 34.3579 35.378 34.161C34.7378 33.7398 33.9777 33.5389 33.213 33.589H31.401ZM30.536 32.881H33.384C34.355 32.8152 35.3186 33.088 36.111 33.653C36.4198 33.9046 36.6658 34.2246 36.8296 34.5877C36.9935 34.9507 37.0706 35.3469 37.055 35.7449C37.0587 36.3659 36.8537 36.9701 36.4729 37.4607C36.0921 37.9512 35.5575 38.2996 34.955 38.45C35.5721 38.8919 36.0789 39.4702 36.436 40.14L38.949 43.969H37.957L35.993 40.934C35.5994 40.2219 35.0928 39.5786 34.493 39.029C34.0144 38.751 33.4644 38.6205 32.912 38.654H31.412V43.969H30.547L30.536 32.881Z" fill="white"/>
<path d="M46.653 32.881V33.589H41.464V38.041H46.498V38.749H41.464V43.261H46.774V43.972H40.599V32.881H46.653Z" fill="white"/>
</g>
<defs>
<clipPath id="clip0_37_2">
<rect width="54" height="54" fill="white"/>
</clipPath>
</defs>
</svg>
