<svg width="86" height="86" viewBox="0 0 86 86" fill="none" xmlns="http://www.w3.org/2000/svg">
<path d="M43 2.6875C20.7361 2.6875 2.6875 20.7361 2.6875 43C2.6875 65.2639 20.7361 83.3125 43 83.3125C65.2639 83.3125 83.3125 65.2639 83.3125 43C83.3125 20.7361 65.2639 2.6875 43 2.6875ZM67.7045 67.7045C61.5788 73.812 53.3986 77.42 44.7579 77.8257C36.1172 78.2313 27.635 75.4054 20.9641 69.8987C14.2931 64.3919 9.91127 56.5988 8.67237 48.0378C7.43347 39.4768 9.42625 30.7611 14.2624 23.5891C19.0986 16.4172 26.4317 11.3026 34.8329 9.24202C43.2341 7.18144 52.1015 8.32248 59.7074 12.4428C67.3132 16.5631 73.1126 23.3675 75.9756 31.5302C78.8385 39.6929 78.5599 48.6291 75.1941 56.5976C73.4399 60.7497 70.8963 64.5218 67.7045 67.7045Z" fill="black"/>
<path d="M25.5313 33.5938H32.25V40.3125H25.5313V33.5938ZM53.75 33.5938H60.4688V40.3125H53.75V33.5938ZM56.822 51.6C55.7824 54.2233 53.9765 56.4726 51.6398 58.0546C49.3032 59.6366 46.5441 60.4778 43.7223 60.4688H42.2777C39.4558 60.4779 36.6966 59.6367 34.3599 58.0547C32.0231 56.4728 30.2172 54.2234 29.1775 51.6L28.9627 51.0625H23.1743L24.1875 53.5956C25.6337 57.2112 28.1301 60.3104 31.3545 62.4936C34.579 64.6767 38.3837 65.8436 42.2777 65.8438H43.7223C47.6163 65.8436 51.421 64.6767 54.6455 62.4936C57.8699 60.3104 60.3663 57.2112 61.8125 53.5956L62.8257 51.0625H57.0368L56.822 51.6Z" fill="black"/>
</svg>
