<svg width="86" height="86" viewBox="0 0 86 86" fill="none" xmlns="http://www.w3.org/2000/svg">
<path d="M53.75 14.3333C49.9486 14.3333 46.3028 15.8434 43.6148 18.5314C40.9268 21.2195 39.4167 24.8652 39.4167 28.6666C39.4167 32.4681 40.9268 36.1138 43.6148 38.8018C46.3028 41.4899 49.9486 43 53.75 43C57.5514 43 61.1972 41.4899 63.8852 38.8018C66.5732 36.1138 68.0833 32.4681 68.0833 28.6666C68.0833 24.8652 66.5732 21.2195 63.8852 18.5314C61.1972 15.8434 57.5514 14.3333 53.75 14.3333ZM53.75 21.1416C54.7382 21.1416 55.7167 21.3363 56.6297 21.7145C57.5427 22.0926 58.3722 22.6469 59.071 23.3457C59.7698 24.0444 60.324 24.874 60.7022 25.787C61.0804 26.6999 61.275 27.6784 61.275 28.6666C61.275 29.6548 61.0804 30.6334 60.7022 31.5463C60.324 32.4593 59.7698 33.2889 59.071 33.9876C58.3722 34.6864 57.5427 35.2407 56.6297 35.6188C55.7167 35.997 54.7382 36.1916 53.75 36.1916C52.7618 36.1916 51.7833 35.997 50.8703 35.6188C49.9573 35.2407 49.1278 34.6864 48.429 33.9876C47.7303 33.2889 47.176 32.4593 46.7978 31.5463C46.4197 30.6334 46.225 29.6548 46.225 28.6666C46.225 26.6709 47.0178 24.7569 48.429 23.3457C49.8402 21.9345 51.7543 21.1416 53.75 21.1416ZM14.3333 25.0833V35.8333H3.58334V43H14.3333V53.75H21.5V43H32.25V35.8333H21.5V25.0833H14.3333ZM53.75 46.5833C44.1825 46.5833 25.0833 51.3491 25.0833 60.9166V71.6666H82.4167V60.9166C82.4167 51.3491 63.3175 46.5833 53.75 46.5833ZM53.75 53.3916C64.3925 53.3916 75.6083 58.6233 75.6083 60.9166V64.8583H31.8917V60.9166C31.8917 58.6233 43 53.3916 53.75 53.3916Z" fill="black"/>
</svg>
