  <svg
            xmlns="http://www.w3.org/2000/svg"
            width="120"
            height="24.09"
            viewBox="0 0 137 29"
            fill="none"
          >
            <g clip-path="url(#clip0_7_3)">
              <path
                d="M10.4861 0.43041V4.64782C10.4861 5.05927 10.3122 5.43987 10.0462 5.6456L4.24559 9.92472C4.06145 10.0584 4.06145 10.3567 4.24559 10.5008L10.0564 14.7799C10.3224 14.9754 10.4861 15.356 10.4861 15.7571V19.7894C10.4861 20.4889 9.91321 20.3962 9.45286 20.0568L0.347832 13.35C0.132995 13.1958 0 12.8975 0 12.5684V7.83659C0 7.51772 0.132995 7.21941 0.337602 7.06511L9.68815 0.183536C10.0462 -0.0839092 10.4861 -0.104481 10.4861 0.43041Z"
                fill="#29ADEB"
              />
              <path
                d="M39.3775 21.15H38.3955C36.2265 21.15 34.7124 20.5739 33.8428 19.4115C32.9734 18.2595 32.8301 16.5931 33.403 14.4124L35.4286 6.81075C36.0118 4.63004 37.045 2.96365 38.5284 1.81158C40.0118 0.649217 41.843 0.0731812 44.0016 0.0731812H53.4954C54.099 0.0731812 54.3241 0.3612 54.1706 0.937236L49.0145 20.2756C48.8611 20.8516 48.4825 21.1397 47.879 21.1397H44.4313C43.8584 21.1397 43.6436 20.8516 43.7971 20.2756L44.1653 18.9075H44.0016C43.5004 19.6481 42.8149 20.2139 41.9555 20.5842C41.0859 20.9648 40.2267 21.15 39.3775 21.15ZM45.618 13.4558L47.8585 5.06207C47.9404 4.76377 47.8176 4.60947 47.4902 4.60947H43.6231C42.7433 4.60947 42.0783 4.79463 41.6282 5.16493C41.1679 5.53524 40.8302 6.16271 40.5949 7.04733L38.7024 14.1552C38.4671 15.0399 38.4773 15.6673 38.733 16.0376C38.9888 16.408 39.5616 16.5931 40.4312 16.5931H41.9555C43.838 16.6034 45.0553 15.5542 45.618 13.4558Z"
                fill="black"
              />
              <path
                d="M57.2608 21.1514H53.762C53.1892 21.1514 52.9743 20.8634 53.1278 20.2874L58.2839 0.949015C58.4374 0.37298 58.8056 0.0849609 59.3786 0.0849609H62.8772C63.4502 0.0849609 63.665 0.37298 63.5115 0.949015L63.1433 2.3171H63.307C64.3096 0.825579 65.8441 0.0849609 67.9311 0.0849609H69.2509C73.5476 0.0849609 75.1026 2.32738 73.9056 6.82253L70.3148 20.2977C70.1613 20.8737 69.7828 21.1618 69.1792 21.1618H65.7315C65.1586 21.1618 64.9438 20.8737 65.0972 20.2977L68.6268 7.0694C68.8621 6.18477 68.8415 5.55731 68.5756 5.187C68.3096 4.81669 67.7264 4.63153 66.8568 4.63153H65.3735C63.4809 4.63153 62.2533 5.68074 61.7008 7.76887L58.3657 20.2874C58.202 20.8634 57.8337 21.1514 57.2608 21.1514Z"
                fill="black"
              />
              <path
                d="M81.6383 20.1942H80.2777C78.1703 20.1942 76.7278 19.6181 75.9503 18.4557C75.1727 17.2934 75.0807 15.627 75.6638 13.4566L77.4337 6.80129C78.0168 4.62058 79.0501 2.95419 80.5335 1.80212C82.0168 0.639758 83.8481 0.0637207 86.0067 0.0637207H95.5005C96.104 0.0637207 96.3291 0.351739 96.1757 0.927775L90.7536 21.3154C90.1807 23.4652 89.1475 25.1213 87.6436 26.2734C86.1397 27.4357 84.3289 28.0118 82.1907 28.0118H74.3031C73.9758 28.0118 73.7609 27.9501 73.6791 27.8266C73.587 27.7032 73.587 27.4872 73.6689 27.1888L74.426 24.3396C74.5794 23.7634 74.9476 23.4755 75.5206 23.4755H82.5489C83.4287 23.4755 84.0936 23.2904 84.5642 22.92C85.0348 22.5497 85.3826 21.9326 85.6077 21.0788L86.4466 17.9415H86.283C85.7816 18.682 85.0962 19.2478 84.2266 19.6387C83.3468 20.009 82.4875 20.1942 81.6383 20.1942ZM87.8789 12.5102L89.8636 5.07318C89.9454 4.77487 89.8226 4.62058 89.4952 4.62058H85.6282C84.7484 4.62058 84.0834 4.80574 83.6332 5.17604C83.1729 5.54636 82.8352 6.17382 82.6001 7.05845L80.9631 13.22C80.7278 14.1046 80.7381 14.7219 81.004 15.0818C81.2599 15.4419 81.8327 15.6167 82.7125 15.6167H84.2369C86.1091 15.6065 87.3264 14.5778 87.8789 12.5102Z"
                fill="black"
              />
              <path
                d="M110.367 21.15H101.282C99.1135 21.15 97.5994 20.5739 96.7298 19.4115C95.8602 18.2595 95.7171 16.5931 96.29 14.4124L98.3155 6.81075C98.8987 4.63004 99.932 2.96365 101.415 1.81158C102.899 0.649217 104.73 0.0731812 106.889 0.0731812H110.132C112.3 0.0731812 113.815 0.649217 114.684 1.81158C115.554 2.97393 115.697 4.64032 115.114 6.81075L113.712 12.0568C113.559 12.6328 113.19 12.9208 112.618 12.9208H102.305C101.978 12.9208 101.773 13.0752 101.692 13.3735L101.446 14.2787C101.221 15.1325 101.241 15.7496 101.507 16.1199C101.773 16.4903 102.346 16.6754 103.226 16.6754H111.533C112.106 16.6754 112.311 16.9737 112.157 17.5805L111.431 20.3064C111.349 20.615 111.237 20.8208 111.073 20.9442C110.94 21.0882 110.694 21.15 110.367 21.15ZM103.257 9.4132H108.843C109.139 9.4132 109.334 9.25891 109.416 8.9606L109.947 6.97533C110.183 6.09071 110.173 5.47353 109.907 5.11351C109.641 4.75348 109.078 4.57861 108.198 4.57861H106.469C105.589 4.57861 104.924 4.76377 104.474 5.11351C104.024 5.47353 103.676 6.09071 103.441 6.97533L102.909 8.9606C102.848 9.25891 102.96 9.4132 103.257 9.4132Z"
                fill="black"
              />
              <path
                d="M122.161 21.15H121.178C119.009 21.15 117.495 20.5739 116.626 19.4115C115.756 18.2595 115.613 16.5931 116.186 14.4124L118.211 6.81075C118.794 4.63004 119.828 2.96365 121.311 1.81158C122.794 0.649217 124.626 0.0731812 126.784 0.0731812H136.278C136.882 0.0731812 137.107 0.3612 136.953 0.937236L131.798 20.2756C131.644 20.8516 131.265 21.1397 130.662 21.1397H127.214C126.641 21.1397 126.426 20.8516 126.58 20.2756L126.949 18.9075H126.784C126.283 19.6481 125.598 20.2139 124.739 20.5842C123.868 20.9648 123.009 21.15 122.161 21.15ZM128.4 13.4558L130.642 5.06207C130.723 4.76377 130.601 4.60947 130.273 4.60947H126.405C125.526 4.60947 124.861 4.79463 124.41 5.16493C123.95 5.53524 123.612 6.16271 123.378 7.04733L121.485 14.1552C121.25 15.0399 121.259 15.6673 121.515 16.0376C121.771 16.408 122.345 16.5931 123.213 16.5931H124.739C126.62 16.6034 127.838 15.5542 128.4 13.4558Z"
                fill="black"
              />
              <path
                d="M31.0395 7.06791L21.689 0.186331C21.5764 0.10404 21.5048 0.0731812 21.3513 0.0731812H18.7529C18.1697 0.0731812 17.5662 0.546354 17.4025 1.14296L10.5072 27.0132C10.364 27.5686 10.6914 28.011 11.2336 28.011H14.4561C15.0086 28.011 15.5713 27.5584 15.7247 27.0132L16.1237 25.5217L17.8117 19.1852L19.1417 14.2066L21.29 6.12156C21.3411 5.91584 21.5866 5.83355 21.7503 5.95698L27.1315 9.91724C27.3259 10.0612 27.3259 10.3493 27.1315 10.4933L21.3207 14.7724C21.0547 14.9679 20.8911 15.3381 20.8911 15.7496V19.7819C20.8911 20.4814 21.4639 20.3887 21.9243 20.0493L31.0293 13.3426C31.2442 13.1883 31.3771 12.89 31.3771 12.5609V7.83939C31.3771 7.52051 31.2442 7.2222 31.0395 7.06791Z"
                fill="black"
              />
            </g>
            <defs>
              <clipPath id="clip0_7_3">
                <rect width="137" height="29" fill="white" />
              </clipPath>
            </defs>
          </svg>
